<svg width="88" viewBox="0 0 68 32" fill="none" xmlns="http://www.w3.org/2000/svg" size="16" id=":r0:"><path d="M25.1618 19.97C24.3798 19.9717 23.614 19.7453 22.9568 19.3181C22.2995 18.8909 21.7789 18.2812 21.4576 17.5625C21.1364 16.8437 21.0283 16.0466 21.1463 15.2673C21.2643 14.488 21.6034 13.7597 22.1227 13.1704C22.6421 12.581 23.3195 12.1556 24.0732 11.9456C24.827 11.7355 25.6249 11.7498 26.3708 11.9866C27.1167 12.2234 27.7787 12.6727 28.277 13.2802C28.7753 13.8878 29.0886 14.6277 29.1792 15.4107H33.2494C33.1273 13.2845 32.1878 11.29 30.6305 9.85073C29.0732 8.41146 27.0207 7.64081 24.9089 7.7024C22.7971 7.76399 20.7922 8.65297 19.3201 10.1806C17.8479 11.7082 17.0244 13.7541 17.0244 15.8839C17.0244 18.0137 17.8479 20.0596 19.3201 21.5873C20.7922 23.1149 22.7971 24.0039 24.9089 24.0654C27.0207 24.127 29.0732 23.3564 30.6305 21.9171C32.1878 20.4779 33.1273 18.4833 33.2494 16.3571H29.194C29.0788 17.3532 28.6042 18.2718 27.8607 18.938C27.1172 19.6042 26.1566 19.9715 25.1618 19.97Z" fill="#2A2A86"></path><path d="M11.8237 8.17431V16.1994C11.8237 18.2989 9.9736 19.9999 7.89092 19.9999C5.80824 19.9999 3.94123 18.2925 3.94123 16.1994V8.17431H0V16.1994C-3.72171e-08 17.2439 0.20412 18.2782 0.600702 19.2432C0.997284 20.2082 1.57856 21.085 2.31133 21.8235C3.04409 22.562 3.914 23.1477 4.87136 23.5473C5.82872 23.9468 6.85477 24.1523 7.89092 24.152C9.39426 24.152 10.5508 23.7662 11.8237 22.5918V24.1755C11.8237 26.275 10.1829 27.9759 7.89092 27.9759C5.59892 27.9759 3.77842 26.2707 3.77842 24.1755H0C0.0338903 26.2624 0.880046 28.2522 2.356 29.716C3.83195 31.1797 5.81943 32 7.88987 32C9.9603 32 11.9478 31.1797 13.4237 29.716C14.8997 28.2522 15.7458 26.2624 15.7797 24.1755V8.18923L11.8237 8.17431Z" fill="#2A2A86"></path><path d="M63.9584 8.17431V16.1994C63.9584 18.2989 62.1083 19.9999 60.0257 19.9999C57.943 19.9999 56.076 18.2947 56.076 16.1994V8.17431H52.1348V16.1994C52.1348 17.2439 52.3389 18.2782 52.7355 19.2432C53.132 20.2082 53.7133 21.085 54.4461 21.8235C55.1788 22.562 56.0488 23.1477 57.0061 23.5473C57.9635 23.9468 58.9895 24.1523 60.0257 24.152C61.529 24.152 62.6856 23.7662 63.9584 22.5918V24.1755C63.9584 26.275 62.3177 27.9759 60.0257 27.9759C57.7337 27.9759 55.9132 26.2707 55.9132 24.1755H52.1348C52.1687 26.2624 53.0148 28.2522 54.4908 29.716C55.9667 31.1797 57.9542 32 60.0246 32C62.095 32 64.0825 31.1797 65.5585 29.716C67.0344 28.2522 67.8806 26.2624 67.9145 24.1755V8.18923L63.9584 8.17431Z" fill="#FCAF17"></path><path d="M46.9376 0V9.10363C45.7319 8.20855 44.276 7.72131 42.7786 7.71176C38.5498 7.71176 35.1118 11.1222 34.875 15.4129H38.9262C39.0457 14.3725 39.5553 13.4177 40.3507 12.7439C41.146 12.07 42.1668 11.7283 43.2039 11.7887C44.2411 11.849 45.2161 12.3069 45.9292 13.0685C46.6423 13.8301 47.0396 14.8377 47.0396 15.885C47.0396 16.9323 46.6423 17.9399 45.9292 18.7015C45.2161 19.4631 44.2411 19.9209 43.2039 19.9813C42.1668 20.0417 41.146 19.6999 40.3507 19.0261C39.5553 18.3523 39.0457 17.3974 38.9262 16.3571H34.875C35.1139 20.6499 38.5604 24.0561 42.7786 24.0561C44.2878 24.0288 45.7514 23.5298 46.9672 22.628L47.5423 23.8685H50.9063V0H46.9376Z" fill="#FCAF17"></path></svg>